<?xml version="1.0" standalone="no"?>
<!DOCTYPE svg PUBLIC "-//W3C//DTD SVG 20010904//EN"
 "http://www.w3.org/TR/2001/REC-SVG-20010904/DTD/svg10.dtd">
<svg version="1.0" xmlns="http://www.w3.org/2000/svg"
 width="992.000000pt" height="992.000000pt" viewBox="0 0 992.000000 992.000000"
 preserveAspectRatio="xMidYMid meet">
<metadata>
Created by potrace 1.16, written by Peter Selinger 2001-2019
</metadata>
<g transform="translate(0.000000,992.000000) scale(0.100000,-0.100000)"
fill="#FFFFFF" stroke="none">
<path d="M4540 9329 c-836 -73 -1650 -387 -2310 -889 -348 -266 -717 -635
-982 -986 -498 -657 -806 -1468 -878 -2309 -13 -155 -13 -795 0 -950 80 -929
435 -1790 1034 -2505 182 -217 484 -516 694 -686 l83 -67 135 -5 136 -5 57 57
58 58 489 1154 c269 635 491 1154 494 1154 3 0 128 -295 279 -655 270 -643
275 -654 325 -704 l52 -51 104 0 104 0 52 51 51 51 629 1484 c346 816 631
1484 634 1484 3 0 383 -893 844 -1984 l839 -1985 56 -55 c31 -31 62 -56 68
-56 6 0 16 -7 23 -15 10 -12 36 -15 119 -15 l106 1 105 85 c226 183 499 451
698 683 541 631 897 1416 1017 2241 38 257 45 378 45 760 0 382 -7 503 -45
760 -122 841 -475 1610 -1042 2270 -126 147 -406 427 -553 553 -731 628 -1603
995 -2555 1077 -140 12 -826 11 -965 -1z m800 -454 c673 -65 1281 -264 1855
-606 522 -312 924 -682 1258 -1161 422 -605 682 -1287 774 -2028 25 -202 25
-618 0 -820 -116 -939 -505 -1787 -1134 -2475 -102 -111 -230 -232 -237 -224
-2 2 -422 1003 -935 2224 l-932 2220 -52 53 -51 52 -105 0 -105 0 -52 -51 -51
-50 -629 -1490 c-346 -819 -631 -1489 -634 -1489 -3 0 -128 295 -279 655 -270
643 -275 654 -325 704 l-52 51 -105 0 -105 0 -51 -52 c-52 -53 -55 -59 -628
-1423 -317 -753 -580 -1374 -585 -1379 -10 -10 -193 171 -312 309 -507 593
-852 1318 -992 2085 -48 261 -61 407 -61 690 0 283 13 429 61 690 149 815 525
1574 1086 2190 220 242 538 496 875 703 756 461 1713 700 2503 622z"/>
</g>
</svg>
