<?xml version="1.0" standalone="no"?>
<!DOCTYPE svg PUBLIC "-//W3C//DTD SVG 20010904//EN"
 "http://www.w3.org/TR/2001/REC-SVG-20010904/DTD/svg10.dtd">
<svg version="1.0" xmlns="http://www.w3.org/2000/svg"
 width="1925.438531pt" height="495.571021pt" viewBox="0 0 1925.438531 495.571021"
 preserveAspectRatio="xMidYMid meet">
<metadata>
Created by potrace 1.12, written by Peter Selinger 2001-2015
</metadata>
<g transform="translate(-19.561469,548.571021) scale(0.100000,-0.100000)">
<path d="M2670 5484 c-656 -56 -1236 -335 -1711 -821 -279 -286 -478 -595
-606 -943 -73 -197 -98 -299 -146 -585 -15 -94 -15 -685 0 -785 36 -228 59
-329 113 -493 101 -302 233 -547 427 -796 101 -129 330 -366 443 -457 71 -57
72 -57 148 -62 l77 -4 41 44 c31 33 57 82 114 218 40 96 106 254 147 350 41
96 90 213 110 260 62 148 124 294 142 335 10 22 35 82 57 133 l39 94 16 -39
c9 -21 33 -76 52 -123 197 -470 262 -619 285 -642 23 -25 33 -28 92 -28 62 0
68 2 97 32 21 23 62 106 128 263 104 245 181 427 195 460 17 37 97 228 220
520 139 330 220 518 225 523 4 5 19 -27 115 -258 45 -107 106 -251 135 -320
30 -69 86 -201 125 -295 39 -93 77 -183 85 -200 7 -16 49 -115 93 -220 44
-104 138 -325 207 -490 70 -165 142 -336 160 -380 63 -153 72 -170 114 -208
39 -35 44 -37 110 -37 l70 0 77 62 c101 82 345 326 428 430 64 79 178 240 202
283 6 11 28 49 49 84 95 161 197 411 253 621 59 223 74 353 79 693 4 237 1
323 -11 415 -46 334 -128 602 -277 892 -88 173 -177 306 -339 505 -49 61 -327
333 -395 386 -295 234 -594 389 -935 487 -255 73 -401 92 -730 96 -151 2 -295
2 -320 0z m556 -284 c403 -57 738 -182 1077 -403 428 -280 749 -682 942 -1182
43 -112 48 -125 83 -250 48 -166 92 -467 92 -620 0 -98 -35 -388 -60 -500 -96
-431 -303 -837 -592 -1163 -85 -96 -164 -169 -172 -161 -2 2 -59 135 -125 294
-67 160 -139 331 -161 380 -21 50 -91 216 -156 370 -64 154 -136 325 -159 380
-23 55 -88 210 -144 345 -57 135 -109 259 -116 275 -8 17 -50 118 -95 225
-128 307 -140 333 -173 368 -28 29 -36 32 -92 32 -56 0 -64 -3 -92 -32 -23
-24 -85 -161 -233 -513 -111 -264 -208 -493 -215 -510 -8 -16 -68 -160 -135
-320 -67 -159 -130 -308 -139 -330 -10 -22 -24 -55 -31 -73 -16 -40 -21 -36
-55 48 -14 36 -48 117 -75 180 -27 63 -86 203 -131 310 -54 131 -91 206 -112
228 -28 29 -36 32 -92 32 -56 0 -64 -3 -92 -32 -19 -21 -54 -90 -93 -183 -34
-82 -87 -206 -116 -275 -29 -69 -108 -255 -174 -415 -67 -159 -129 -308 -139
-330 -10 -22 -56 -131 -102 -242 -46 -112 -88 -203 -93 -203 -15 0 -171 166
-244 259 -305 388 -492 853 -548 1356 -57 517 123 1156 460 1630 183 259 364
434 631 613 501 335 1125 489 1671 412z"/>
<path d="M15088 3680 c-171 -31 -279 -104 -335 -228 -49 -106 -38 -229 29
-334 56 -89 117 -124 343 -198 153 -51 212 -78 253 -120 79 -78 61 -211 -36
-277 -74 -49 -201 -53 -298 -7 -93 44 -227 206 -265 321 -10 30 -14 33 -50 33
l-39 0 0 -62 c0 -35 3 -134 7 -220 l6 -158 37 0 c27 0 43 7 64 29 l28 29 56
-25 c101 -45 195 -63 321 -63 71 0 139 6 174 15 137 36 246 118 295 223 24 50
27 70 27 157 0 116 -18 166 -86 234 -60 59 -111 85 -286 145 -179 61 -203 71
-256 105 -96 62 -102 190 -14 268 92 81 235 69 342 -28 44 -41 67 -74 112
-165 l57 -114 39 0 40 0 -7 53 c-3 28 -6 121 -6 205 l0 152 -37 0 c-25 -1 -48
-9 -67 -25 -29 -23 -30 -23 -65 -5 -104 52 -277 80 -383 60z"/>
<path d="M17164 3675 c-95 -17 -136 -31 -216 -72 -131 -68 -233 -194 -284
-350 -26 -80 -29 -100 -29 -228 0 -130 3 -146 31 -225 17 -47 47 -112 68 -143
79 -119 218 -212 363 -242 90 -19 270 -19 374 1 93 17 276 75 328 103 l33 18
-1 146 c-2 187 6 209 80 231 29 9 59 16 66 16 8 0 13 12 13 30 l0 30 -320 0
-320 0 0 -29 c0 -28 3 -30 58 -41 75 -16 111 -35 122 -66 6 -14 10 -85 10
-158 0 -151 -1 -153 -86 -186 -147 -55 -279 -24 -363 86 -76 100 -112 247
-113 459 0 166 17 259 66 360 56 113 118 166 219 184 114 21 218 -17 297 -106
41 -47 122 -200 136 -255 5 -25 11 -28 45 -28 l39 0 0 220 0 220 -42 0 c-29 0
-49 -7 -64 -21 l-23 -21 -84 30 c-138 50 -267 62 -403 37z"/>
<path d="M9257 3658 c-131 -332 -436 -1052 -457 -1078 -34 -44 -76 -69 -132
-78 -39 -7 -43 -10 -46 -40 l-3 -32 250 0 251 0 0 34 c0 33 0 33 -58 40 -32 4
-73 16 -91 27 -31 19 -33 23 -28 61 3 23 23 88 43 145 l38 103 211 0 211 0 59
-145 c69 -171 69 -170 -44 -188 l-71 -11 0 -33 0 -33 661 0 660 0 -3 32 c-3
29 -7 32 -56 43 -29 7 -64 23 -77 35 l-25 23 0 219 c0 290 -10 290 210 3 68
-88 152 -204 188 -257 l65 -98 244 0 244 0 -3 32 c-3 30 -7 33 -47 40 -55 9
-115 45 -168 100 -61 64 -453 558 -453 572 0 6 46 57 103 112 234 230 281 263
406 290 36 7 69 14 74 14 4 0 7 14 7 30 l0 30 -265 0 -265 0 0 -30 c0 -26 4
-30 38 -35 78 -13 82 -15 82 -38 0 -13 -14 -46 -32 -73 -41 -63 -390 -414
-412 -414 -15 0 -16 22 -14 236 l3 237 25 18 c14 11 53 24 88 30 59 11 62 12
62 40 l0 29 -335 0 -335 0 0 -30 c0 -24 5 -31 28 -36 83 -19 107 -28 128 -49
l24 -24 0 -474 c0 -459 -1 -475 -20 -500 -46 -58 -243 -52 -314 11 -29 25 -74
130 -281 650 l-189 472 -87 0 c-60 0 -88 -4 -92 -12z m63 -508 c45 -113 84
-211 87 -217 4 -10 -34 -13 -172 -13 -138 0 -176 3 -172 13 3 6 42 106 87 220
45 115 83 207 85 205 2 -2 40 -95 85 -208z"/>
<path d="M6220 3620 c0 -24 5 -31 28 -36 15 -3 49 -13 75 -21 79 -25 77 -14
77 -526 0 -290 -4 -455 -11 -475 -12 -36 -67 -62 -129 -62 -39 0 -40 -1 -40
-35 l0 -35 331 0 330 0 -3 32 c-3 30 -6 33 -58 43 -70 14 -99 30 -110 61 -6
14 -10 108 -10 208 l0 183 143 6 c81 3 167 12 200 21 201 55 305 166 315 336
8 132 -34 214 -136 268 -105 56 -167 62 -607 62 l-395 0 0 -30z m619 -50 c79
-15 119 -38 146 -84 48 -82 54 -242 11 -323 -34 -67 -118 -111 -226 -120 l-70
-6 0 265 c0 146 3 268 7 271 9 10 72 8 132 -3z"/>
<path d="M7450 3620 c0 -24 5 -31 28 -36 83 -19 107 -28 128 -49 l24 -24 0
-476 0 -476 -24 -24 c-15 -15 -40 -26 -72 -30 -27 -3 -56 -7 -64 -8 -9 -1 -16
-15 -18 -35 l-3 -32 574 0 574 0 7 113 c3 61 9 147 12 190 l7 77 -31 0 c-27 0
-34 -8 -76 -82 -65 -115 -110 -174 -148 -195 -42 -22 -299 -32 -359 -14 -65
19 -69 38 -69 286 l0 215 95 0 c58 0 108 -5 128 -14 47 -19 81 -64 103 -135
18 -58 20 -61 52 -61 l32 0 0 256 0 255 -32 -3 c-28 -3 -33 -9 -48 -54 -46
-133 -79 -157 -227 -162 l-103 -4 0 242 0 243 158 -5 c122 -4 167 -9 195 -23
46 -22 121 -103 153 -167 21 -41 29 -48 54 -48 l30 0 0 155 0 155 -540 0 -540
0 0 -30z"/>
<path d="M11950 3621 c0 -25 5 -30 30 -35 17 -3 44 -9 60 -12 17 -3 44 -17 60
-31 l30 -25 0 -482 0 -483 -25 -23 c-18 -17 -41 -25 -87 -29 -63 -6 -63 -6
-66 -39 l-3 -34 393 4 c369 4 398 6 478 27 247 66 411 212 465 417 21 77 21
250 0 327 -41 156 -154 292 -305 366 -148 73 -213 81 -652 81 l-378 0 0 -29z
m755 -72 c107 -40 189 -146 232 -301 24 -88 24 -354 0 -452 -50 -200 -161
-292 -344 -284 -78 3 -84 5 -115 36 l-33 32 -3 495 -3 494 33 4 c62 9 176 -3
233 -24z"/>
<path d="M13420 3620 c0 -24 5 -31 28 -36 78 -18 102 -26 126 -45 l26 -20 0
-480 0 -480 -24 -24 c-15 -15 -40 -26 -72 -30 -27 -3 -56 -7 -64 -8 -9 -1 -16
-15 -18 -35 l-3 -32 574 0 575 0 6 63 c3 34 9 119 12 190 l7 127 -31 0 c-28 0
-35 -6 -58 -52 -39 -77 -92 -158 -127 -195 -41 -44 -104 -55 -272 -51 -132 3
-135 4 -162 31 l-28 27 -3 225 -3 225 98 0 c155 -1 198 -31 238 -165 10 -34
16 -40 44 -43 l31 -3 0 256 0 256 -31 -3 c-28 -3 -32 -8 -54 -73 -38 -114 -89
-145 -242 -145 l-83 0 0 241 0 242 158 -5 c108 -4 168 -10 193 -21 47 -19 122
-98 156 -164 25 -47 31 -53 61 -53 l32 0 0 155 0 155 -545 0 -545 0 0 -30z"/>
<path d="M15830 3620 c0 -24 5 -31 28 -35 76 -16 133 -38 147 -58 13 -18 15
-86 15 -494 l0 -472 -22 -26 c-19 -22 -35 -27 -93 -33 -70 -7 -70 -7 -70 -37
l0 -30 338 -3 337 -2 0 34 0 33 -60 7 c-42 5 -68 14 -90 32 l-30 26 0 475 c0
321 4 481 11 495 13 24 67 48 108 48 47 0 61 10 61 41 l0 29 -340 0 -340 0 0
-30z"/>
<path d="M18022 3619 c3 -27 9 -32 56 -48 29 -10 69 -33 88 -52 64 -62 65 -70
62 -504 -3 -367 -4 -392 -23 -430 -22 -44 -66 -71 -137 -83 -39 -7 -43 -10
-46 -40 l-3 -32 266 0 266 0 -3 31 c-3 29 -8 33 -63 50 -87 27 -102 37 -127
88 -22 45 -23 56 -26 406 -3 357 -3 360 16 340 11 -11 183 -222 382 -470 l362
-450 77 0 76 0 5 520 c4 450 7 525 21 555 21 45 55 68 124 82 51 10 55 13 55
39 l0 29 -260 0 -260 0 0 -29 c0 -27 4 -30 69 -50 78 -24 114 -57 131 -121 6
-23 9 -149 8 -325 l-3 -287 -328 406 -328 406 -230 0 -230 0 3 -31z"/>
</g>
</svg>
